<?xml version="1.0" encoding="UTF-8"?>
<!DOCTYPE svg PUBLIC "-//W3C//DTD SVG 1.1//EN" "http://www.w3.org/Graphics/SVG/1.1/DTD/svg11.dtd">
<!-- Creator: CorelDRAW 2018 (64 Bit Versão de avaliação) -->
<svg xmlns="http://www.w3.org/2000/svg" xml:space="preserve" width="118.266mm" height="31.6949mm" version="1.1" style="shape-rendering:geometricPrecision; text-rendering:geometricPrecision; image-rendering:optimizeQuality; fill-rule:evenodd; clip-rule:evenodd"
viewBox="0 0 6034.09 1617.11"
 xmlns:xlink="http://www.w3.org/1999/xlink">
 <defs>
  <style type="text/css">
   <![CDATA[
    .fil1 {fill:#8F8F8F}
    .fil0 {fill:white}
   ]]>
  </style>
 </defs>
 <g id="Camada_x0020_1">
  <metadata id="CorelCorpID_0Corel-Layer"/>
  <g id="_2473400129792">
   <g>
    <path class="fil0" d="M1117.05 1439.09c195.89,-220.78 392.36,-449.73 588.25,-670.51 113.01,0 226.01,0 339.02,0 -242.47,260.21 -487.08,517.91 -729.55,778.12 -79.3,81.91 -210.12,115.16 -341.17,-28.05 -63.08,-69.77 -198.04,-223.13 -326.89,-369.39l232.94 0c57.73,70.62 133.61,163.34 237.41,289.83zm-501.57 -325.27l-54.45 -61.76 239.23 0 50.42 61.76 -235.2 0zm-85.73 -97.2c-19.29,-21.85 -37.77,-42.74 -55.06,-62.26l245.73 0c14.82,18.08 31.22,38.14 50.91,62.26l-241.58 0zm-86.5 -97.7c-24.87,-27.99 -46.24,-51.9 -62.7,-70.11 68.96,0 183.31,0 252.27,0 21.85,26.02 39.81,47.56 58.44,70.11l-248 0z"/>
    <g>
     <ellipse class="fil1" cx="1045.91" cy="822.96" rx="108.16" ry="107.74"/>
     <path class="fil1" d="M927.27 178.02c-195.89,220.78 -392.36,449.73 -588.25,670.51 -113.01,0 -226.01,0 -339.02,0 242.47,-260.21 487.08,-517.91 729.55,-778.12 79.3,-81.91 210.12,-115.16 341.17,28.05 63.08,69.77 198.04,223.13 326.89,369.39l-232.94 0c-57.73,-70.62 -133.61,-163.34 -237.41,-289.83zm501.57 325.27l54.45 61.76 -239.23 0 -50.42 -61.76 235.2 0zm85.73 97.2c19.29,21.85 37.77,42.74 55.06,62.26l-245.73 0c-14.82,-18.08 -31.22,-38.14 -50.91,-62.26l241.58 0zm86.5 97.7c24.87,27.99 46.24,51.9 62.7,70.11 -68.96,0 -183.31,0 -252.27,0 -21.85,-26.02 -39.81,-47.56 -58.44,-70.11l248 0z"/>
    </g>
   </g>
   <g>
    <path class="fil0" d="M4215.37 868.36c0,-51.93 61.52,-114.5 114.5,-114.5l633.51 0c52.04,0 114.5,61.42 114.5,114.5l0 598.85c0,51.94 -61.51,114.5 -114.5,114.5l-633.51 0c-53.08,0 -114.5,-62.42 -114.5,-114.5l0 -598.85zm137.59 589.94l587.33 0 0 -581.02 -587.33 0 0 581.02z"/>
    <path class="fil0" d="M5335.96 1566.7c0,5.07 -0.83,9.76 -2.48,14.06 -1.71,4.42 -4.23,8.31 -7.55,11.62 -3.32,3.33 -7.2,5.85 -11.61,7.55 -4.3,1.66 -8.99,2.48 -14.06,2.48l-53.58 0c-5.07,0 -9.77,-0.82 -14.06,-2.48 -4.41,-1.7 -8.29,-4.22 -11.61,-7.55 -3.33,-3.33 -5.85,-7.21 -7.55,-11.61 -1.66,-4.3 -2.48,-8.99 -2.48,-14.06l0 -619.33c0,-4.58 0.94,-8.3 2.81,-11.12 2.51,-3.78 6.12,-5.67 10.83,-5.67 6.39,0 14.52,5.56 24.38,16.65 23.08,29.5 51.5,57.51 74.35,87.05 4.07,5.22 7.15,10.22 9.22,14.97 2.26,5.16 3.39,10.08 3.39,14.75l0 502.71zm569.99 -754.86c0,-5.14 0.91,-9.94 2.71,-14.37 1.82,-4.48 4.53,-8.52 8.1,-12.09l0.15 -0.11c3.69,-3.53 7.75,-6.2 12.23,-7.99 4.55,-1.8 9.39,-2.71 14.61,-2.71l52.53 0c5.23,0 10.06,0.91 14.58,2.71 4.52,1.81 8.59,4.47 12.26,7.99l0.15 0.11c3.58,3.57 6.29,7.61 8.11,12.09 1.8,4.43 2.71,9.23 2.71,14.37l0 754.86c0,10.55 -3.69,19.19 -11.08,25.9 -3.59,3.27 -7.61,5.72 -12.04,7.36 -4.36,1.63 -9.09,2.44 -14.16,2.44l-58.57 0c-4.25,0 -8.9,-0.69 -13.93,-2.06 -4.72,-1.24 -9.79,-3.18 -15.2,-5.74 -5.4,-2.55 -10.35,-5.51 -14.82,-8.83 -4.53,-3.35 -8.54,-7.08 -12.04,-11.16l-662.82 -762.32c-3.23,-3.22 -5.7,-6.71 -7.4,-10.44 -1.74,-3.89 -2.63,-7.92 -2.63,-12.07 0,-10.14 6.12,-15.21 18.36,-15.21l96.13 0c4.85,0 9.82,1.36 14.86,4.04 4.64,2.47 9.31,6.05 13.96,10.71l553.23 639.53 0 -617.01z"/>
    <path class="fil0" d="M3940.59 810.27c0,-10.55 3.7,-19.2 11.08,-25.9 3.51,-3.19 7.34,-5.63 11.46,-7.28 4.18,-1.69 8.57,-2.53 13.16,-2.53l66.19 0c9.22,0 17.44,3.27 24.63,9.8 3.66,3.32 6.43,7.21 8.31,11.63 1.84,4.36 2.77,9.12 2.77,14.27l0 756.43c0,9.36 -3.62,17.65 -10.83,24.87 -7.19,7.22 -15.5,10.83 -24.87,10.83l-66.19 0c-9.34,0 -17.64,-3.61 -24.85,-10.81 -7.23,-7.25 -10.85,-15.54 -10.85,-24.89l0 -756.43z"/>
    <path class="fil0" d="M3071.19 1568.28c0,-20.66 8.99,-41.66 26.95,-63l428.32 -513.38c1.91,-3.06 4.18,-5.76 6.79,-8.07 2.82,-2.45 5.99,-4.5 9.52,-6.1 3.27,-1.46 6.35,-2.59 9.23,-3.34 3.14,-0.84 6.07,-1.26 8.75,-1.26l104.01 0c4.3,0 7.79,1.07 10.46,3.21 3.16,2.53 4.75,6.01 4.75,10.43 0,2.95 -0.56,5.92 -1.67,8.89 -1.04,2.73 -2.56,5.46 -4.55,8.1l-398.31 475.24 512.23 0c10.43,0 19,3.35 25.67,10.03 3.35,3.35 5.88,7.23 7.57,11.65 1.64,4.29 2.46,8.98 2.46,14.03l0 52.01c0,5.07 -0.83,9.77 -2.48,14.06 -1.7,4.4 -4.22,8.29 -7.55,11.61 -3.33,3.33 -7.21,5.85 -11.61,7.55 -4.3,1.66 -8.99,2.48 -14.06,2.48l-680.79 0c-4.96,0 -9.57,-0.73 -13.8,-2.2 -4.38,-1.51 -8.25,-3.78 -11.59,-6.78 -3.45,-3.11 -6.07,-6.86 -7.8,-11.19 -1.68,-4.18 -2.52,-8.84 -2.52,-13.95zm47.28 -758.01c0,-5.06 0.83,-9.76 2.48,-14.06 1.71,-4.43 4.23,-8.31 7.55,-11.62 3.31,-3.31 7.19,-5.83 11.62,-7.53 4.29,-1.67 8.98,-2.49 14.06,-2.49l624.05 0c10.43,0 19,3.35 25.68,10.03 3.32,3.32 5.85,7.2 7.54,11.61 1.66,4.3 2.48,8.99 2.48,14.06 0,12.47 -2.17,23.98 -6.48,34.49 -4.33,10.53 -10.81,19.97 -19.42,28.3 -17.18,16.6 -38.31,24.91 -63.38,24.91l-570.48 0c-5.07,0 -9.77,-0.83 -14.06,-2.48 -4.41,-1.69 -8.29,-4.22 -11.61,-7.54 -3.31,-3.31 -5.83,-7.19 -7.54,-11.62 -1.67,-4.3 -2.49,-8.99 -2.49,-14.06l0 -52z"/>
    <path class="fil0" d="M2168.16 812.05c-2.69,-2.75 -4.74,-5.86 -6.11,-9.31 -1.41,-3.53 -2.12,-7.33 -2.12,-11.39 0,-5.57 2.04,-9.89 6.11,-12.93 3.43,-2.57 8.05,-3.85 13.84,-3.85l108.74 0c4.85,0 9.81,1.35 14.86,4.04 4.64,2.47 9.31,6.05 13.96,10.71 62.6,62.6 160.95,204.57 220.9,280.79 1.6,1.67 2.84,3.58 3.7,5.73 0.88,2.24 1.33,4.59 1.33,7.06 0,2.47 -0.45,4.82 -1.33,7.03 -0.9,2.26 -2.2,4.26 -3.89,5.96 -16.38,20.13 -37.98,50.14 -55.24,67.81 -2.11,2.12 -4.33,3.76 -6.63,4.91 -2.62,1.34 -5.3,1.99 -8.02,1.99 -2.7,0 -5.39,-0.66 -8.03,-1.98 -2.32,-1.18 -4.54,-2.81 -6.62,-4.89 -85.29,-85.28 -204.12,-251.47 -285.46,-351.68zm483.94 427.85l0 326.8c0,11.55 -3.27,20.42 -9.84,26.61 -6.45,6.06 -15.67,9.09 -27.7,9.09l-62.51 0c-24.08,0 -35.96,-11.9 -35.96,-35.7l0 -318.34c0,-4.18 0.46,-8.28 1.38,-12.27 0.92,-4.01 2.31,-7.85 4.12,-11.48 1.73,-3.4 3.66,-6.68 5.71,-9.81 2.12,-3.22 4.28,-6.15 6.41,-8.82l319.57 -415.92c3.78,-5 7.92,-8.81 12.42,-11.38 4.84,-2.74 9.99,-4.12 15.45,-4.12l105.59 0c5.8,0 10.41,1.29 13.84,3.85 4.06,3.05 6.1,7.37 6.1,12.93 0,3.48 -3,10.03 -9,19.63 -75.54,118.94 -249.73,309.98 -345.58,428.92z"/>
   </g>
  </g>
 </g>
</svg>
