<?xml version="1.0" encoding="UTF-8"?>
<!DOCTYPE svg PUBLIC "-//W3C//DTD SVG 1.1//EN" "http://www.w3.org/Graphics/SVG/1.1/DTD/svg11.dtd">
<!-- Creator: CorelDRAW 2018 (64 Bit Versão de avaliação) -->
<svg xmlns="http://www.w3.org/2000/svg" xml:space="preserve" width="128.143mm" height="101.364mm" version="1.1" style="shape-rendering:geometricPrecision; text-rendering:geometricPrecision; image-rendering:optimizeQuality; fill-rule:evenodd; clip-rule:evenodd"
viewBox="0 0 7794.04 6165.27"
 xmlns:xlink="http://www.w3.org/1999/xlink">
 <defs>
  <style type="text/css">
   <![CDATA[
    .fil1 {fill:#8F8F8F}
    .fil0 {fill:white}
   ]]>
  </style>
 </defs>
 <g id="Camada_x0020_1">
  <metadata id="CorelCorpID_0Corel-Layer"/>
  <g id="_2473396623424">
   <path class="fil0" d="M4258.8 5486.56c746.84,-841.73 1495.88,-1714.62 2242.71,-2556.34 430.85,0 861.69,0 1292.53,0 -924.44,992.05 -1857,1974.55 -2781.44,2966.61 -302.32,312.3 -801.07,439.07 -1300.73,-106.95 -240.5,-265.99 -755.03,-850.67 -1246.29,-1408.31l888.1 0c220.08,269.26 509.39,622.74 905.12,1104.99zm-1912.25 -1240.1l-207.59 -235.45 912.06 0 192.24 235.45 -896.72 0zm-326.85 -370.56c-73.55,-83.29 -143.98,-162.95 -209.93,-237.37l936.85 0c56.5,68.92 119.02,145.4 194.11,237.37l-921.03 0zm-329.79 -372.49c-94.81,-106.69 -176.29,-197.86 -239.07,-267.29 262.91,0 698.87,0 961.78,0 83.32,99.18 151.77,181.31 222.8,267.29l-945.52 0z"/>
   <g>
    <ellipse class="fil1" cx="3987.57" cy="3137.56" rx="412.35" ry="410.78"/>
    <path class="fil1" d="M3535.24 678.71c-746.84,841.73 -1495.88,1714.62 -2242.71,2556.34 -430.85,0 -861.69,0 -1292.53,0 924.44,-992.05 1857,-1974.55 2781.44,-2966.61 302.32,-312.3 801.07,-439.07 1300.73,106.95 240.5,265.99 755.03,850.67 1246.29,1408.31l-888.1 0c-220.08,-269.26 -509.39,-622.74 -905.12,-1104.99zm1912.25 1240.1l207.59 235.45 -912.06 0 -192.24 -235.45 896.72 0zm326.85 370.56c73.55,83.29 143.98,162.95 209.93,237.37l-936.85 0c-56.5,-68.92 -119.02,-145.4 -194.11,-237.37l921.03 0zm329.79 372.49c94.81,106.7 176.29,197.86 239.07,267.29 -262.91,0 -698.87,0 -961.78,0 -83.32,-99.18 -151.77,-181.31 -222.8,-267.29l945.52 0z"/>
   </g>
  </g>
 </g>
</svg>
